# xmcd
#
# Track frame offsets:
#	187
#	18177
#	30690
#	47655
#	56937
#	65837
#	76907
#	89645
#	103932
#	117332
#	129270
#	141990
#	154057
#	164437
#	177327
#	186717
#	199810
#	207425
#	222372
#	230797
#
# Disc length: 3294 seconds
#
# Revision: 1
# Processed by: cddbd v1.5.1PL0 Copyright (c) Steve Scherf et al.
# Submitted via: CDex 1.50Beta5
#
DISCID=370cdc14
DTITLE=ポール・ヨーダー吹奏楽団 - 世界のマーチ〈TWIN BEST〉 Disc 1
DYEAR=2001
DGENRE=
TTITLE0=星条旗よ永遠なれ
TTITLE1=ワシントン・ポスト・マーチ
TTITLE2=美中の美
TTITLE3=錨を上げて
TTITLE4=アメリカン・パトロール
TTITLE5=エル・カピタン
TTITLE6=雷神
TTITLE7=国民の象徴
TTITLE8=海を越える握手
TTITLE9=士官候補生
TTITLE10=キング・コットン
TTITLE11=自由の鍵
TTITLE12=マンハッタン・ビーチ
TTITLE13=闘牛士
TTITLE14=ディキシー
TTITLE15=忠誠
TTITLE16=聖者の行進
TTITLE17=サウス・ランパート・ストリート
TTITLE18=タイガー・ラグ
TTITLE19=ハロー・ドーリー
EXTD=
EXTT0=
EXTT1=
EXTT2=
EXTT3=
EXTT4=
EXTT5=
EXTT6=
EXTT7=
EXTT8=
EXTT9=
EXTT10=
EXTT11=
EXTT12=
EXTT13=
EXTT14=
EXTT15=
EXTT16=
EXTT17=
EXTT18=
EXTT19=
PLAYORDER=
